HIERARCHY
ROOT Hips
{
	OFFSET 0.00000 0.00000 0.00000
	CHANNELS 6 Xposition Yposition Zposition Zrotation Yrotation Xrotation 
	JOINT LHipJoint
	{
		OFFSET 0 0 0
		CHANNELS 3 Zrotation Yrotation Xrotation
		JOINT LeftUpLeg
		{
			OFFSET 1.41496 -1.84582 0.78394
			CHANNELS 3 Zrotation Yrotation Xrotation
			JOINT LeftLeg
			{
				OFFSET 2.58040 -7.08960 0.00000
				CHANNELS 3 Zrotation Yrotation Xrotation
				JOINT LeftFoot
				{
					OFFSET 2.64719 -7.27309 0.00000
					CHANNELS 3 Zrotation Yrotation Xrotation
					JOINT LeftToeBase
					{
						OFFSET 0.20718 -0.56921 2.20259
						CHANNELS 3 Zrotation Yrotation Xrotation
						End Site
						{
							OFFSET 0.00000 -0.00000 1.14243
						}
					}
				}
			}
		}
	}
	JOINT RHipJoint
	{
		OFFSET 0 0 0
		CHANNELS 3 Zrotation Yrotation Xrotation
		JOINT RightUpLeg
		{
			OFFSET -1.40551 -1.84582 0.78394
			CHANNELS 3 Zrotation Yrotation Xrotation
			JOINT RightLeg
			{
				OFFSET -2.56572 -7.04926 0.00000
				CHANNELS 3 Zrotation Yrotation Xrotation
				JOINT RightFoot
				{
					OFFSET -2.57974 -7.08778 0.00000
					CHANNELS 3 Zrotation Yrotation Xrotation
					JOINT RightToeBase
					{
						OFFSET -0.26704 -0.73369 2.20815
						CHANNELS 3 Zrotation Yrotation Xrotation
						End Site
						{
							OFFSET -0.00000 -0.00000 1.16246
						}
					}
				}
			}
		}
	}
	JOINT LowerBack
	{
		OFFSET 0 0 0
		CHANNELS 3 Zrotation Yrotation Xrotation
		JOINT Spine
		{
			OFFSET -0.04690 2.05196 -0.07017
			CHANNELS 3 Zrotation Yrotation Xrotation
			JOINT Spine1
			{
				OFFSET 0.04085 2.05260 0.00800
				CHANNELS 3 Zrotation Yrotation Xrotation
				JOINT Neck
				{
					OFFSET 0 0 0
					CHANNELS 3 Zrotation Yrotation Xrotation
					JOINT Neck1
					{
						OFFSET -0.03582 1.80995 0.19301
						CHANNELS 3 Zrotation Yrotation Xrotation
						JOINT Head
						{
							OFFSET 0.00952 1.80195 -0.36389
							CHANNELS 3 Zrotation Yrotation Xrotation
							End Site
							{
								OFFSET 0.00392 1.85062 -0.14494
							}
						}
					}
				}
				JOINT LeftShoulder
				{
					OFFSET 0 0 0
					CHANNELS 3 Zrotation Yrotation Xrotation
					JOINT LeftArm
					{
						OFFSET 3.55224 1.39726 -0.13667
						CHANNELS 3 Zrotation Yrotation Xrotation
						JOINT LeftForeArm
						{
							OFFSET 5.14507 -0.00000 -0.00000
							CHANNELS 3 Zrotation Yrotation Xrotation
							JOINT LeftHand
							{
								OFFSET 3.50646 -0.00000 0.00000
								CHANNELS 3 Zrotation Yrotation Xrotation
								JOINT LeftFingerBase
								{
									OFFSET 0 0 0
									CHANNELS 3 Zrotation Yrotation Xrotation
									JOINT LeftHandIndex1
									{
										OFFSET 0.62997 -0.00000 0.00000
										CHANNELS 3 Zrotation Yrotation Xrotation
										End Site
										{
											OFFSET 0.50790 -0.00000 0.00000
										}
									}
								}
								JOINT LThumb
								{
									OFFSET 0 0 0
									CHANNELS 3 Zrotation Yrotation Xrotation
									End Site
									{
										OFFSET 0.51565 -0.00000 0.51565
									}
								}
							}
						}
					}
				}
				JOINT RightShoulder
				{
					OFFSET 0 0 0
					CHANNELS 3 Zrotation Yrotation Xrotation
					JOINT RightArm
					{
						OFFSET -3.06467 1.61290 -0.28813
						CHANNELS 3 Zrotation Yrotation Xrotation
						JOINT RightForeArm
						{
							OFFSET -5.23200 -0.00000 -0.00000
							CHANNELS 3 Zrotation Yrotation Xrotation
							JOINT RightHand
							{
								OFFSET -3.65641 -0.00000 0.00000
								CHANNELS 3 Zrotation Yrotation Xrotation
								JOINT RightFingerBase
								{
									OFFSET 0 0 0
									CHANNELS 3 Zrotation Yrotation Xrotation
									JOINT RightHandIndex1
									{
										OFFSET -0.65681 -0.00000 0.00000
										CHANNELS 3 Zrotation Yrotation Xrotation
										End Site
										{
											OFFSET -0.52953 -0.00000 0.00000
										}
									}
								}
								JOINT RThumb
								{
									OFFSET 0 0 0
									CHANNELS 3 Zrotation Yrotation Xrotation
									End Site
									{
										OFFSET -0.53762 -0.00000 0.53762
									}
								}
							}
						}
					}
				}
			}
		}
	}
}
MOTION
Frames: 12
Frame Time: .0083333
-9.1517 17.18 39.4626 0 0 0 0 0 0 -21 0 0 0 0 0 0 0 0 0 0 0 0 0 0 21 0 0 0 0 0 0 0 0 0 0 0 0 0 0 0 0 0 0 0 0 0 0 -16 0 0 21 0 0 11 0 0 0 -8 0 0 0 0 0 0 0 0 0 0 0 0 0 0 0 0 0 0 0 0 8 0 0 0 0 0 0 0 0 0 0 0 0 0 0 0 0 0
-9.1517 17.1800 39.4626 179.7940 15.7206 -172.2430 0.0000 0.0000 0.0000 -9.8209 -12.9577 -28.8928 4.5906 12.9074 39.0227 0.4990 -7.6148 -12.8741 0.1995 2.8762 7.9343 0.0000 0.0000 0.0000 24.7260 0.5154 -13.8422 -2.3985 -9.6510 27.8537 -0.4681 -14.4591 -24.9933 -0.5343 4.6839 -13.0092 -0.2064 1.1335 4.5899 3.1422 1.7199 -1.6548 3.2250 0.9452 -4.3918 2.7082 2.7187 -13.7112 -4.3490 4.0357 14.5187 -1.4392 1.7794 6.8341 -0.0000 -0.0000 0.0000 -90.1004 0.8516 25.8201 17.1464 -27.0504 -4.1537 -0.0000 -0.0000 9.3626 7.2613 1.2921 0.1646 -7.1250 0.0000 -0.0000 -15.2811 31.0519 5.3797 -0.0000 -0.0000 0.0000 83.1057 -2.0464 15.9309 -20.6288 31.3925 -5.8554 0.0000 0.0000 3.0678 -18.5302 -10.9471 3.6421 7.1250 -0.0000 -0.0000 7.6273 -41.3892 0.6837
-9.1456 17.1784 39.4710 179.7690 15.5543 -172.2580 0.0000 0.0000 0.0000 -9.8144 -12.9429 -28.9513 4.5878 12.9040 39.0101 0.4873 -7.7906 -12.7734 0.1992 2.8741 7.9285 0.0000 0.0000 0.0000 24.7595 0.5176 -13.8597 -2.4032 -9.6598 27.8819 -0.4626 -14.5867 -25.0916 -0.5234 4.6366 -12.8748 -0.2152 1.0740 4.5645 3.1340 1.6384 -1.6543 3.2287 0.9043 -4.3720 2.3980 2.7509 -13.4455 -4.0072 4.0722 14.2589 -1.2785 1.8127 6.6922 -0.0000 -0.0000 0.0000 -90.0863 0.8292 25.7347 17.1551 -27.0618 -4.1577 -0.0000 -0.0000 9.3449 7.2146 1.4049 0.1778 -7.1250 0.0000 -0.0000 -15.3357 31.1603 5.3588 -0.0000 -0.0000 0.0000 83.1101 -1.9346 16.0244 -20.6513 31.4190 -5.8671 0.0000 0.0000 3.0123 -18.5632 -10.7684 3.5903 7.1250 -0.0000 -0.0000 7.5664 -41.2065 0.7125
-9.1435 17.1776 39.4681 179.7740 15.5665 -172.2760 0.0000 0.0000 0.0000 -9.8057 -12.9750 -28.9065 4.5877 12.9039 39.0099 0.4896 -7.7627 -12.7940 0.2001 2.8804 7.9461 0.0000 0.0000 0.0000 24.7617 0.4743 -13.8428 -2.4036 -9.6605 27.8840 -0.4735 -14.4926 -25.0761 -0.5290 4.6606 -12.9431 -0.2588 1.0518 4.6320 3.2106 1.6201 -1.8037 3.3333 0.9028 -4.5687 2.5535 2.5446 -13.7215 -4.4826 3.8812 14.7782 -1.4718 1.6888 6.9137 -0.0000 0.0000 0.0000 -90.2536 1.1561 25.5818 17.1790 -27.0931 -4.1685 -0.0000 -0.0000 9.3349 7.2108 1.3604 0.1721 -7.1250 0.0000 -0.0000 -15.3313 31.1170 5.3737 -0.0000 0.0000 0.0000 82.9455 -2.1616 16.2601 -20.7111 31.4896 -5.8983 0.0000 0.0000 2.8482 -18.5377 -10.7006 3.5628 7.1250 -0.0000 -0.0000 7.5767 -41.1337 0.7272
-9.1389 17.1774 39.4702 179.7400 15.4953 -172.3040 0.0000 0.0000 0.0000 -9.8284 -12.9877 -28.8984 4.5872 12.9032 39.0073 0.4859 -7.8262 -12.7642 0.2002 2.8812 7.9482 0.0000 0.0000 0.0000 24.7488 0.4131 -13.8424 -2.4050 -9.6630 27.8922 -0.4736 -14.5051 -25.0913 -0.5324 4.6755 -12.9853 -0.2998 1.0413 4.6651 3.2201 1.6059 -1.8415 3.3669 0.8982 -4.6275 1.9128 2.8120 -12.8249 -3.6848 4.2045 14.0217 -1.0912 1.8908 6.4965 -0.0000 -0.0000 0.0000 -90.3045 1.1820 25.5209 17.1504 -27.0556 -4.1555 -0.0000 -0.0000 9.3989 7.2236 1.3819 0.1751 -7.1250 0.0000 -0.0000 -15.3250 31.1383 5.3632 -0.0000 -0.0000 0.0000 82.9204 -2.1742 16.3133 -20.7734 31.5628 -5.9309 0.0000 0.0000 2.7998 -18.5146 -10.6024 3.5258 7.1250 -0.0000 -0.0000 7.5797 -41.0294 0.7470
-9.1318 17.1760 39.4745 179.7590 15.4128 -172.3020 0.0000 0.0000 0.0000 -9.7720 -12.9954 -28.9307 4.5886 12.9049 39.0137 0.4804 -7.9068 -12.7174 0.2001 2.8802 7.9455 0.0000 0.0000 0.0000 24.8084 0.4369 -13.8269 -2.4043 -9.6618 27.8882 -0.4777 -14.5377 -25.1623 -0.5123 4.5876 -12.7359 -0.2021 1.0429 4.5341 3.1552 1.6034 -1.7482 3.2465 0.8894 -4.4508 2.4936 2.7217 -13.6012 -4.2700 4.0761 14.5018 -1.3756 1.7973 6.8051 -0.0000 0.0000 0.0000 -90.1904 0.9890 25.5808 17.1330 -27.0327 -4.1476 -0.0000 -0.0000 9.3890 7.1895 1.4118 0.1781 -7.1250 0.0000 -0.0000 -15.3563 31.1664 5.3641 -0.0000 0.0000 0.0000 83.0730 -1.9700 16.3170 -20.8115 31.6076 -5.9508 0.0000 0.0000 2.7718 -18.5382 -10.6884 3.5589 7.1250 -0.0000 -0.0000 7.5740 -41.1210 0.7293
-9.1261 17.1749 39.4772 179.7650 15.3489 -172.3150 0.0000 0.0000 0.0000 -9.7419 -13.0059 -28.9364 4.5898 12.9064 39.0190 0.4767 -7.9639 -12.6874 0.2000 2.8799 7.9446 0.0000 0.0000 0.0000 24.8448 0.4232 -13.8137 -2.4047 -9.6625 27.8907 -0.4797 -14.5550 -25.1991 -0.5060 4.5598 -12.6571 -0.1740 1.0321 4.5020 3.1452 1.5895 -1.7439 3.2219 0.8813 -4.4261 2.4769 2.7318 -13.6218 -4.2574 4.0890 14.4861 -1.3673 1.8031 6.8035 -0.0000 -0.0000 0.0000 -90.1844 0.9696 25.5579 17.1221 -27.0184 -4.1426 -0.0000 -0.0000 9.3994 7.1954 1.4220 0.1795 -7.1250 0.0000 -0.0000 -15.3534 31.1764 5.3592 -0.0000 -0.0000 0.0000 83.1071 -1.9203 16.3999 -20.8576 31.6618 -5.9750 0.0000 0.0000 2.7095 -18.5632 -10.7040 3.5691 7.1250 -0.0000 -0.0000 7.5549 -41.1395 0.7240
-9.1203 17.1736 39.4802 179.7760 15.2822 -172.3280 0.0000 0.0000 0.0000 -9.7055 -13.0215 -28.9439 4.5922 12.9093 39.0297 0.4734 -8.0171 -12.6604 0.1998 2.8782 7.9397 0.0000 0.0000 0.0000 24.8878 0.4068 -13.7996 -2.4045 -9.6621 27.8894 -0.4813 -14.5739 -25.2337 -0.4994 4.5305 -12.5740 -0.1423 1.0236 4.4787 3.1350 1.5788 -1.7370 3.1947 0.8746 -4.4039 2.4485 2.7415 -13.6488 -4.2289 4.1000 14.4630 -1.3522 1.8084 6.8000 0.0000 0.0000 0.0000 -90.1759 0.9407 25.5491 17.1086 -27.0008 -4.1365 -0.0000 -0.0000 9.4109 7.2098 1.4211 0.1798 -7.1250 0.0000 -0.0000 -15.3421 31.1759 5.3552 0.0000 0.0000 0.0000 83.1500 -1.8714 16.4816 -20.9030 31.7150 -5.9989 0.0000 0.0000 2.6535 -18.5957 -10.7387 3.5872 7.1250 -0.0000 -0.0000 7.5326 -41.1785 0.7145
-9.1142 17.1723 39.4832 179.7860 15.2152 -172.3430 0.0000 0.0000 0.0000 -9.6695 -13.0434 -28.9462 4.5947 12.9123 39.0412 0.4705 -8.0618 -12.6371 0.1995 2.8762 7.9344 0.0000 0.0000 0.0000 24.9311 0.3865 -13.7838 -2.4042 -9.6615 27.8875 -0.4827 -14.5941 -25.2683 -0.4926 4.4998 -12.4872 -0.1104 1.0177 4.4626 3.1226 1.5714 -1.7258 3.1646 0.8694 -4.3814 2.3849 2.7575 -13.6500 -4.1536 4.1162 14.4032 -1.3161 1.8186 6.7785 -0.0000 -0.0000 0.0000 -90.1637 0.9017 25.5545 17.0944 -26.9821 -4.1301 -0.0000 -0.0000 9.4205 7.2150 1.4208 0.1798 -7.1250 0.0000 -0.0000 -15.3379 31.1758 5.3537 -0.0000 -0.0000 0.0000 83.2025 -1.8214 16.5594 -20.9459 31.7651 -6.0214 0.0000 0.0000 2.6064 -18.6308 -10.7660 3.6035 7.1250 -0.0000 -0.0000 7.5066 -41.2102 0.7061
-9.1082 17.1710 39.4858 179.7960 15.1523 -172.3620 0.0000 0.0000 0.0000 -9.6354 -13.0737 -28.9393 4.5975 12.9156 39.0535 0.4686 -8.0910 -12.6216 0.1991 2.8730 7.9254 0.0000 0.0000 0.0000 24.9731 0.3603 -13.7659 -2.4039 -9.6610 27.8857 -0.4839 -14.6115 -25.2980 -0.4871 4.4752 -12.4174 -0.0853 1.0117 4.4610 3.1159 1.5644 -1.7221 3.1441 0.8650 -4.3753 2.3143 2.7630 -13.6562 -4.0870 4.1226 14.3596 -1.2826 1.8229 6.7629 -0.0000 -0.0000 0.0000 -90.1640 0.8806 25.5580 17.0819 -26.9656 -4.1244 -0.0000 -0.0000 9.4295 7.2107 1.4141 0.1789 -7.1250 0.0000 -0.0000 -15.3402 31.1691 5.3571 -0.0000 -0.0000 0.0000 83.2484 -1.7939 16.6497 -20.9861 31.8121 -6.0426 0.0000 0.0000 2.5640 -18.6626 -10.7748 3.6130 7.1250 -0.0000 -0.0000 7.4801 -41.2222 0.7014
-9.1022 17.1697 39.4880 179.7970 15.0951 -172.3870 0.0000 0.0000 0.0000 -9.6125 -13.1116 -28.9205 4.6001 12.9187 39.0650 0.4678 -8.1040 -12.6150 0.1985 2.8689 7.9138 0.0000 0.0000 0.0000 25.0048 0.3270 -13.7455 -2.4037 -9.6607 27.8847 -0.4854 -14.6235 -25.3236 -0.4832 4.4573 -12.3669 -0.0750 1.0041 4.4741 3.1157 1.5554 -1.7291 3.1386 0.8604 -4.3891 2.2037 2.7733 -13.6075 -3.9900 4.1387 14.2894 -1.2326 1.8336 6.7280 -0.0000 -0.0000 0.0000 -90.1831 0.8855 25.5504 17.0707 -26.9509 -4.1193 -0.0000 -0.0000 9.4444 7.2045 1.4024 0.1773 -7.1250 0.0000 -0.0000 -15.3431 31.1576 5.3626 -0.0000 -0.0000 0.0000 83.2826 -1.7959 16.7536 -21.0219 31.8539 -6.0615 0.0000 0.0000 2.5304 -18.6829 -10.7531 3.6100 7.1250 -0.0000 -0.0000 7.4586 -41.2015 0.7032
-9.0962 17.1684 39.4895 179.7930 15.0468 -172.4170 0.0000 0.0000 0.0000 -9.5996 -13.1552 -28.8896 4.6024 12.9215 39.0754 0.4681 -8.0997 -12.6179 0.1978 2.8639 7.9000 0.0000 0.0000 0.0000 25.0268 0.2894 -13.7212 -2.4036 -9.6606 27.8844 -0.4875 -14.6276 -25.3460 -0.4798 4.4422 -12.3241 -0.0766 0.9960 4.4949 3.1200 1.5458 -1.7425 3.1444 0.8561 -4.4146 2.0970 2.7838 -13.5506 -3.9090 4.1583 14.2280 -1.1881 1.8451 6.6951 0.0000 0.0000 0.0000 -90.2164 0.9111 25.5348 17.0618 -26.9391 -4.1153 -0.0000 -0.0000 9.4612 7.1884 1.3919 0.1755 -7.1250 0.0000 -0.0000 -15.3539 31.1470 5.3707 0.0000 0.0000 0.0000 83.3085 -1.8206 16.8684 -21.0538 31.8911 -6.0783 0.0000 0.0000 2.5109 -18.6839 -10.7138 3.5973 7.1250 -0.0000 -0.0000 7.4507 -41.1608 0.7099
